M48
;Layer_Color=9474304
;FILE_FORMAT=2:5
INCH,LZ
;TYPE=PLATED
T1F00S00C0.02800
T2F00S00C0.03543
T3F00S00C0.10000
%
T01
X00145Y00205
X00475Y0015
X01165Y0028
X012Y0048
X0115Y0053
X01085Y0056
X0123Y0062
X0119Y00665
X012775Y00575
X0103059Y0071059
X00155Y0071
T02
X0025Y0005
X0035
X0045
X0055
X0065
X0075
X0085
X0095
X0105
X0115
X0125
X0135
X0145
X0155
Y0085
X0145
X0135
X0125
X0115
X0105
X0095
X0085
X0075
X0065
X0165
X0175
Y0005
X0165
T03
X001Y001
Y008
X019
Y001
M30
