G04*
G04 #@! TF.GenerationSoftware,Altium Limited,Altium Designer,20.1.14 (287)*
G04*
G04 Layer_Color=8388736*
%FSLAX25Y25*%
%MOIN*%
G70*
G04*
G04 #@! TF.SameCoordinates,6A9D062D-DFAF-4A18-B4C3-A7C2119B1702*
G04*
G04*
G04 #@! TF.FilePolarity,Negative*
G04*
G01*
G75*
%ADD15R,0.04343X0.07887*%
%ADD16R,0.04343X0.07887*%
%ADD17R,0.06706X0.06312*%
%ADD18C,0.06706*%
%ADD19R,0.06706X0.06706*%
%ADD20C,0.10800*%
%ADD21C,0.05800*%
D15*
X55964Y15941D02*
D03*
X24035D02*
D03*
X29035D02*
D03*
X34035D02*
D03*
X60964D02*
D03*
X65964D02*
D03*
X70964D02*
D03*
X75964D02*
D03*
X80964D02*
D03*
X85964D02*
D03*
X90964D02*
D03*
X34035Y71059D02*
D03*
X29035D02*
D03*
X24035D02*
D03*
D16*
X90964D02*
D03*
X85964D02*
D03*
X80964D02*
D03*
X75964D02*
D03*
X70964D02*
D03*
X65964D02*
D03*
X60964D02*
D03*
X55964D02*
D03*
D17*
X108000Y20520D02*
D03*
Y28000D02*
D03*
D18*
X75000Y85000D02*
D03*
X85000D02*
D03*
X95000D02*
D03*
X105000D02*
D03*
X115000D02*
D03*
X125000D02*
D03*
X135000D02*
D03*
X145000D02*
D03*
X155000D02*
D03*
X165000D02*
D03*
X175000D02*
D03*
X35000Y5000D02*
D03*
X45000D02*
D03*
X55000D02*
D03*
X65000D02*
D03*
X75000D02*
D03*
X85000D02*
D03*
X95000D02*
D03*
X105000D02*
D03*
X115000D02*
D03*
X125000D02*
D03*
X135000D02*
D03*
X145000D02*
D03*
X155000D02*
D03*
X165000D02*
D03*
X175000D02*
D03*
D19*
X65000Y85000D02*
D03*
X25000Y5000D02*
D03*
D20*
X190000Y10000D02*
D03*
Y80000D02*
D03*
X10000D02*
D03*
Y10000D02*
D03*
D21*
X127750Y57500D02*
D03*
X123000Y62000D02*
D03*
X119000Y66500D02*
D03*
X108500Y56000D02*
D03*
X115000Y53000D02*
D03*
X120000Y48000D02*
D03*
X47500Y15000D02*
D03*
X103059Y71059D02*
D03*
X14500Y20500D02*
D03*
X15500Y71000D02*
D03*
X116500Y28000D02*
D03*
M02*
