G04*
G04 #@! TF.GenerationSoftware,Altium Limited,Altium Designer,20.1.14 (287)*
G04*
G04 Layer_Physical_Order=2*
G04 Layer_Color=16711680*
%FSLAX25Y25*%
%MOIN*%
G70*
G04*
G04 #@! TF.SameCoordinates,6A9D062D-DFAF-4A18-B4C3-A7C2119B1702*
G04*
G04*
G04 #@! TF.FilePolarity,Positive*
G04*
G01*
G75*
%ADD10C,0.01000*%
%ADD23C,0.05906*%
%ADD24R,0.05906X0.05906*%
%ADD25C,0.10000*%
%ADD26C,0.05000*%
G36*
X191656Y88328D02*
X193249Y87845D01*
X194717Y87060D01*
X196004Y86004D01*
X197060Y84717D01*
X197845Y83249D01*
X198328Y81656D01*
X198484Y80068D01*
X198471Y80000D01*
Y10000D01*
X198484Y9932D01*
X198328Y8343D01*
X197845Y6751D01*
X197060Y5283D01*
X196004Y3996D01*
X194717Y2940D01*
X193249Y2155D01*
X191656Y1672D01*
X190068Y1516D01*
X190000Y1529D01*
X177792D01*
X177622Y2029D01*
X177819Y2181D01*
X178453Y3007D01*
X178851Y3968D01*
X178987Y5000D01*
X178851Y6032D01*
X178453Y6993D01*
X177819Y7819D01*
X176993Y8453D01*
X176032Y8851D01*
X175000Y8987D01*
X173968Y8851D01*
X173007Y8453D01*
X172181Y7819D01*
X171547Y6993D01*
X171149Y6032D01*
X171013Y5000D01*
X171149Y3968D01*
X171547Y3007D01*
X172181Y2181D01*
X172378Y2029D01*
X172208Y1529D01*
X167791D01*
X167622Y2029D01*
X167819Y2181D01*
X168453Y3007D01*
X168851Y3968D01*
X168987Y5000D01*
X168851Y6032D01*
X168453Y6993D01*
X167819Y7819D01*
X166993Y8453D01*
X166032Y8851D01*
X165000Y8987D01*
X163968Y8851D01*
X163007Y8453D01*
X162181Y7819D01*
X161547Y6993D01*
X161149Y6032D01*
X161013Y5000D01*
X161149Y3968D01*
X161547Y3007D01*
X162181Y2181D01*
X162378Y2029D01*
X162208Y1529D01*
X157791D01*
X157622Y2029D01*
X157819Y2181D01*
X158453Y3007D01*
X158851Y3968D01*
X158987Y5000D01*
X158851Y6032D01*
X158453Y6993D01*
X157819Y7819D01*
X156993Y8453D01*
X156032Y8851D01*
X155000Y8987D01*
X153968Y8851D01*
X153007Y8453D01*
X152181Y7819D01*
X151547Y6993D01*
X151149Y6032D01*
X151013Y5000D01*
X151149Y3968D01*
X151547Y3007D01*
X152181Y2181D01*
X152378Y2029D01*
X152208Y1529D01*
X147792D01*
X147622Y2029D01*
X147819Y2181D01*
X148453Y3007D01*
X148851Y3968D01*
X148987Y5000D01*
X148851Y6032D01*
X148453Y6993D01*
X147819Y7819D01*
X146993Y8453D01*
X146032Y8851D01*
X145000Y8987D01*
X143968Y8851D01*
X143007Y8453D01*
X142181Y7819D01*
X141547Y6993D01*
X141149Y6032D01*
X141013Y5000D01*
X141149Y3968D01*
X141547Y3007D01*
X142181Y2181D01*
X142378Y2029D01*
X142209Y1529D01*
X137792D01*
X137622Y2029D01*
X137819Y2181D01*
X138453Y3007D01*
X138851Y3968D01*
X138987Y5000D01*
X138851Y6032D01*
X138453Y6993D01*
X137819Y7819D01*
X136993Y8453D01*
X136032Y8851D01*
X135000Y8987D01*
X133968Y8851D01*
X133007Y8453D01*
X132181Y7819D01*
X131547Y6993D01*
X131149Y6032D01*
X131013Y5000D01*
X131149Y3968D01*
X131547Y3007D01*
X132181Y2181D01*
X132378Y2029D01*
X132209Y1529D01*
X127792D01*
X127622Y2029D01*
X127819Y2181D01*
X128453Y3007D01*
X128851Y3968D01*
X128987Y5000D01*
X128851Y6032D01*
X128453Y6993D01*
X127819Y7819D01*
X126993Y8453D01*
X126032Y8851D01*
X125000Y8987D01*
X123968Y8851D01*
X123007Y8453D01*
X122181Y7819D01*
X121547Y6993D01*
X121149Y6032D01*
X121013Y5000D01*
X121149Y3968D01*
X121547Y3007D01*
X122181Y2181D01*
X122378Y2029D01*
X122208Y1529D01*
X117791D01*
X117622Y2029D01*
X117819Y2181D01*
X118453Y3007D01*
X118851Y3968D01*
X118987Y5000D01*
X118851Y6032D01*
X118453Y6993D01*
X117819Y7819D01*
X116993Y8453D01*
X116032Y8851D01*
X115000Y8987D01*
X113968Y8851D01*
X113007Y8453D01*
X112181Y7819D01*
X111547Y6993D01*
X111149Y6032D01*
X111013Y5000D01*
X111149Y3968D01*
X111547Y3007D01*
X112181Y2181D01*
X112378Y2029D01*
X112208Y1529D01*
X107791D01*
X107622Y2029D01*
X107819Y2181D01*
X108453Y3007D01*
X108851Y3968D01*
X108987Y5000D01*
X108851Y6032D01*
X108453Y6993D01*
X107819Y7819D01*
X106993Y8453D01*
X106032Y8851D01*
X105000Y8987D01*
X103968Y8851D01*
X103007Y8453D01*
X102181Y7819D01*
X101547Y6993D01*
X101149Y6032D01*
X101013Y5000D01*
X101149Y3968D01*
X101547Y3007D01*
X102181Y2181D01*
X102378Y2029D01*
X102208Y1529D01*
X97791D01*
X97622Y2029D01*
X97819Y2181D01*
X98453Y3007D01*
X98851Y3968D01*
X98987Y5000D01*
X98851Y6032D01*
X98453Y6993D01*
X97819Y7819D01*
X96993Y8453D01*
X96032Y8851D01*
X95000Y8987D01*
X93968Y8851D01*
X93007Y8453D01*
X92181Y7819D01*
X91547Y6993D01*
X91149Y6032D01*
X91013Y5000D01*
X91149Y3968D01*
X91547Y3007D01*
X92181Y2181D01*
X92378Y2029D01*
X92208Y1529D01*
X87792D01*
X87622Y2029D01*
X87819Y2181D01*
X88453Y3007D01*
X88851Y3968D01*
X88987Y5000D01*
X88851Y6032D01*
X88453Y6993D01*
X87819Y7819D01*
X86993Y8453D01*
X86032Y8851D01*
X85000Y8987D01*
X83968Y8851D01*
X83007Y8453D01*
X82181Y7819D01*
X81547Y6993D01*
X81149Y6032D01*
X81013Y5000D01*
X81149Y3968D01*
X81547Y3007D01*
X82181Y2181D01*
X82378Y2029D01*
X82209Y1529D01*
X77792D01*
X77622Y2029D01*
X77819Y2181D01*
X78453Y3007D01*
X78851Y3968D01*
X78987Y5000D01*
X78851Y6032D01*
X78453Y6993D01*
X77819Y7819D01*
X76993Y8453D01*
X76032Y8851D01*
X75000Y8987D01*
X73968Y8851D01*
X73007Y8453D01*
X72181Y7819D01*
X71547Y6993D01*
X71149Y6032D01*
X71013Y5000D01*
X71149Y3968D01*
X71547Y3007D01*
X72181Y2181D01*
X72378Y2029D01*
X72208Y1529D01*
X67791D01*
X67622Y2029D01*
X67819Y2181D01*
X68453Y3007D01*
X68851Y3968D01*
X68987Y5000D01*
X68851Y6032D01*
X68453Y6993D01*
X67819Y7819D01*
X66993Y8453D01*
X66032Y8851D01*
X65000Y8987D01*
X63968Y8851D01*
X63007Y8453D01*
X62181Y7819D01*
X61547Y6993D01*
X61149Y6032D01*
X61013Y5000D01*
X61149Y3968D01*
X61547Y3007D01*
X62181Y2181D01*
X62378Y2029D01*
X62208Y1529D01*
X57792D01*
X57622Y2029D01*
X57819Y2181D01*
X58453Y3007D01*
X58851Y3968D01*
X58921Y4500D01*
X51079D01*
X51149Y3968D01*
X51547Y3007D01*
X52181Y2181D01*
X52378Y2029D01*
X52209Y1529D01*
X47791D01*
X47622Y2029D01*
X47819Y2181D01*
X48453Y3007D01*
X48851Y3968D01*
X48987Y5000D01*
X48851Y6032D01*
X48453Y6993D01*
X47819Y7819D01*
X46993Y8453D01*
X46032Y8851D01*
X45000Y8987D01*
X43968Y8851D01*
X43007Y8453D01*
X42181Y7819D01*
X41547Y6993D01*
X41149Y6032D01*
X41013Y5000D01*
X41149Y3968D01*
X41547Y3007D01*
X42181Y2181D01*
X42378Y2029D01*
X42208Y1529D01*
X37791D01*
X37622Y2029D01*
X37819Y2181D01*
X38453Y3007D01*
X38851Y3968D01*
X38987Y5000D01*
X38851Y6032D01*
X38453Y6993D01*
X37819Y7819D01*
X36993Y8453D01*
X36032Y8851D01*
X35000Y8987D01*
X33968Y8851D01*
X33007Y8453D01*
X32181Y7819D01*
X31547Y6993D01*
X31149Y6032D01*
X31013Y5000D01*
X31149Y3968D01*
X31547Y3007D01*
X32181Y2181D01*
X32378Y2029D01*
X32208Y1529D01*
X28953D01*
Y8953D01*
X21047D01*
Y1529D01*
X10000D01*
X9932Y1516D01*
X8343Y1672D01*
X6751Y2155D01*
X5283Y2940D01*
X3996Y3996D01*
X2940Y5283D01*
X2155Y6751D01*
X1672Y8343D01*
X1516Y9932D01*
X1529Y10000D01*
Y80000D01*
X1516Y80068D01*
X1672Y81656D01*
X2155Y83249D01*
X2940Y84717D01*
X3996Y86004D01*
X5283Y87060D01*
X6751Y87845D01*
X8343Y88328D01*
X9932Y88484D01*
X10000Y88471D01*
X61047D01*
Y81047D01*
X68953D01*
Y88471D01*
X72208D01*
X72378Y87971D01*
X72181Y87819D01*
X71547Y86993D01*
X71149Y86032D01*
X71013Y85000D01*
X71149Y83968D01*
X71547Y83007D01*
X72181Y82181D01*
X73007Y81547D01*
X73968Y81149D01*
X75000Y81013D01*
X76032Y81149D01*
X76993Y81547D01*
X77819Y82181D01*
X78453Y83007D01*
X78851Y83968D01*
X78987Y85000D01*
X78851Y86032D01*
X78453Y86993D01*
X77819Y87819D01*
X77622Y87971D01*
X77792Y88471D01*
X82209D01*
X82378Y87971D01*
X82181Y87819D01*
X81547Y86993D01*
X81149Y86032D01*
X81013Y85000D01*
X81149Y83968D01*
X81547Y83007D01*
X82181Y82181D01*
X83007Y81547D01*
X83968Y81149D01*
X85000Y81013D01*
X86032Y81149D01*
X86993Y81547D01*
X87819Y82181D01*
X88453Y83007D01*
X88851Y83968D01*
X88987Y85000D01*
X88851Y86032D01*
X88453Y86993D01*
X87819Y87819D01*
X87622Y87971D01*
X87792Y88471D01*
X92208D01*
X92378Y87971D01*
X92181Y87819D01*
X91547Y86993D01*
X91149Y86032D01*
X91013Y85000D01*
X91149Y83968D01*
X91547Y83007D01*
X92181Y82181D01*
X93007Y81547D01*
X93968Y81149D01*
X95000Y81013D01*
X96032Y81149D01*
X96993Y81547D01*
X97819Y82181D01*
X98453Y83007D01*
X98851Y83968D01*
X98987Y85000D01*
X98851Y86032D01*
X98453Y86993D01*
X97819Y87819D01*
X97622Y87971D01*
X97791Y88471D01*
X102208D01*
X102378Y87971D01*
X102181Y87819D01*
X101547Y86993D01*
X101149Y86032D01*
X101013Y85000D01*
X101149Y83968D01*
X101547Y83007D01*
X102181Y82181D01*
X103007Y81547D01*
X103968Y81149D01*
X105000Y81013D01*
X106032Y81149D01*
X106993Y81547D01*
X107819Y82181D01*
X108453Y83007D01*
X108851Y83968D01*
X108987Y85000D01*
X108851Y86032D01*
X108453Y86993D01*
X107819Y87819D01*
X107622Y87971D01*
X107791Y88471D01*
X112208D01*
X112378Y87971D01*
X112181Y87819D01*
X111547Y86993D01*
X111149Y86032D01*
X111013Y85000D01*
X111149Y83968D01*
X111547Y83007D01*
X112181Y82181D01*
X113007Y81547D01*
X113968Y81149D01*
X115000Y81013D01*
X116032Y81149D01*
X116993Y81547D01*
X117819Y82181D01*
X118453Y83007D01*
X118851Y83968D01*
X118987Y85000D01*
X118851Y86032D01*
X118453Y86993D01*
X117819Y87819D01*
X117622Y87971D01*
X117791Y88471D01*
X122208D01*
X122378Y87971D01*
X122181Y87819D01*
X121547Y86993D01*
X121149Y86032D01*
X121013Y85000D01*
X121149Y83968D01*
X121547Y83007D01*
X122181Y82181D01*
X123007Y81547D01*
X123968Y81149D01*
X125000Y81013D01*
X126032Y81149D01*
X126993Y81547D01*
X127819Y82181D01*
X128453Y83007D01*
X128851Y83968D01*
X128987Y85000D01*
X128851Y86032D01*
X128453Y86993D01*
X127819Y87819D01*
X127622Y87971D01*
X127792Y88471D01*
X132209D01*
X132378Y87971D01*
X132181Y87819D01*
X131547Y86993D01*
X131149Y86032D01*
X131013Y85000D01*
X131149Y83968D01*
X131547Y83007D01*
X132181Y82181D01*
X133007Y81547D01*
X133968Y81149D01*
X135000Y81013D01*
X136032Y81149D01*
X136993Y81547D01*
X137819Y82181D01*
X138453Y83007D01*
X138851Y83968D01*
X138987Y85000D01*
X138851Y86032D01*
X138453Y86993D01*
X137819Y87819D01*
X137622Y87971D01*
X137792Y88471D01*
X142209D01*
X142378Y87971D01*
X142181Y87819D01*
X141547Y86993D01*
X141149Y86032D01*
X141013Y85000D01*
X141149Y83968D01*
X141547Y83007D01*
X142181Y82181D01*
X143007Y81547D01*
X143968Y81149D01*
X145000Y81013D01*
X146032Y81149D01*
X146993Y81547D01*
X147819Y82181D01*
X148453Y83007D01*
X148851Y83968D01*
X148987Y85000D01*
X148851Y86032D01*
X148453Y86993D01*
X147819Y87819D01*
X147622Y87971D01*
X147792Y88471D01*
X152208D01*
X152378Y87971D01*
X152181Y87819D01*
X151547Y86993D01*
X151149Y86032D01*
X151013Y85000D01*
X151149Y83968D01*
X151547Y83007D01*
X152181Y82181D01*
X153007Y81547D01*
X153968Y81149D01*
X155000Y81013D01*
X156032Y81149D01*
X156993Y81547D01*
X157819Y82181D01*
X158453Y83007D01*
X158851Y83968D01*
X158987Y85000D01*
X158851Y86032D01*
X158453Y86993D01*
X157819Y87819D01*
X157622Y87971D01*
X157791Y88471D01*
X162208D01*
X162378Y87971D01*
X162181Y87819D01*
X161547Y86993D01*
X161149Y86032D01*
X161013Y85000D01*
X161149Y83968D01*
X161547Y83007D01*
X162181Y82181D01*
X163007Y81547D01*
X163968Y81149D01*
X165000Y81013D01*
X166032Y81149D01*
X166993Y81547D01*
X167819Y82181D01*
X168453Y83007D01*
X168851Y83968D01*
X168987Y85000D01*
X168851Y86032D01*
X168453Y86993D01*
X167819Y87819D01*
X167622Y87971D01*
X167791Y88471D01*
X172208D01*
X172378Y87971D01*
X172181Y87819D01*
X171547Y86993D01*
X171149Y86032D01*
X171013Y85000D01*
X171149Y83968D01*
X171547Y83007D01*
X172181Y82181D01*
X173007Y81547D01*
X173968Y81149D01*
X175000Y81013D01*
X176032Y81149D01*
X176993Y81547D01*
X177819Y82181D01*
X178453Y83007D01*
X178851Y83968D01*
X178987Y85000D01*
X178851Y86032D01*
X178453Y86993D01*
X177819Y87819D01*
X177622Y87971D01*
X177792Y88471D01*
X190000D01*
X190068Y88484D01*
X191656Y88328D01*
D02*
G37*
%LPC*%
G36*
X190000Y86029D02*
X188824Y85913D01*
X187693Y85570D01*
X186651Y85013D01*
X185737Y84263D01*
X184987Y83350D01*
X184430Y82307D01*
X184087Y81176D01*
X183971Y80000D01*
X184087Y78824D01*
X184430Y77693D01*
X184987Y76651D01*
X185737Y75737D01*
X186651Y74987D01*
X187693Y74430D01*
X188824Y74087D01*
X190000Y73971D01*
X191176Y74087D01*
X192307Y74430D01*
X193350Y74987D01*
X194263Y75737D01*
X195013Y76651D01*
X195570Y77693D01*
X195913Y78824D01*
X196029Y80000D01*
X195913Y81176D01*
X195570Y82307D01*
X195013Y83350D01*
X194263Y84263D01*
X193350Y85013D01*
X192307Y85570D01*
X191176Y85913D01*
X190000Y86029D01*
D02*
G37*
G36*
X10000D02*
X8824Y85913D01*
X7693Y85570D01*
X6650Y85013D01*
X5737Y84263D01*
X4987Y83350D01*
X4430Y82307D01*
X4087Y81176D01*
X3971Y80000D01*
X4087Y78824D01*
X4430Y77693D01*
X4987Y76651D01*
X5737Y75737D01*
X6650Y74987D01*
X7693Y74430D01*
X8824Y74087D01*
X10000Y73971D01*
X11176Y74087D01*
X12307Y74430D01*
X13350Y74987D01*
X14263Y75737D01*
X15013Y76651D01*
X15570Y77693D01*
X15913Y78824D01*
X16029Y80000D01*
X15913Y81176D01*
X15570Y82307D01*
X15013Y83350D01*
X14263Y84263D01*
X13350Y85013D01*
X12307Y85570D01*
X11176Y85913D01*
X10000Y86029D01*
D02*
G37*
G36*
X103559Y74523D02*
Y71559D01*
X106523D01*
X106469Y71973D01*
X106116Y72824D01*
X105555Y73555D01*
X104824Y74116D01*
X103973Y74469D01*
X103559Y74523D01*
D02*
G37*
G36*
X102559D02*
X102145Y74469D01*
X101294Y74116D01*
X100563Y73555D01*
X100002Y72824D01*
X99649Y71973D01*
X99595Y71559D01*
X102559D01*
Y74523D01*
D02*
G37*
G36*
X16000Y74464D02*
Y71500D01*
X18964D01*
X18910Y71914D01*
X18557Y72765D01*
X17996Y73496D01*
X17265Y74057D01*
X16414Y74410D01*
X16000Y74464D01*
D02*
G37*
G36*
X15000D02*
X14586Y74410D01*
X13735Y74057D01*
X13004Y73496D01*
X12443Y72765D01*
X12090Y71914D01*
X12036Y71500D01*
X15000D01*
Y74464D01*
D02*
G37*
G36*
X106523Y70559D02*
X103559D01*
Y67595D01*
X103973Y67649D01*
X104824Y68002D01*
X105555Y68563D01*
X106116Y69294D01*
X106469Y70145D01*
X106523Y70559D01*
D02*
G37*
G36*
X102559D02*
X99595D01*
X99649Y70145D01*
X100002Y69294D01*
X100563Y68563D01*
X101294Y68002D01*
X102145Y67649D01*
X102559Y67595D01*
Y70559D01*
D02*
G37*
G36*
X18964Y70500D02*
X16000D01*
Y67536D01*
X16414Y67590D01*
X17265Y67943D01*
X17996Y68504D01*
X18557Y69235D01*
X18910Y70086D01*
X18964Y70500D01*
D02*
G37*
G36*
X15000D02*
X12036D01*
X12090Y70086D01*
X12443Y69235D01*
X13004Y68504D01*
X13735Y67943D01*
X14586Y67590D01*
X15000Y67536D01*
Y70500D01*
D02*
G37*
G36*
X119000Y70030D02*
X118086Y69910D01*
X117235Y69557D01*
X116504Y68996D01*
X115943Y68265D01*
X115590Y67414D01*
X115470Y66500D01*
X115590Y65586D01*
X115688Y65351D01*
X109649Y59312D01*
X109414Y59410D01*
X108500Y59530D01*
X107586Y59410D01*
X106735Y59057D01*
X106004Y58496D01*
X105443Y57765D01*
X105090Y56914D01*
X104970Y56000D01*
X105090Y55086D01*
X105443Y54235D01*
X106004Y53504D01*
X106735Y52943D01*
X107586Y52590D01*
X108500Y52470D01*
X109414Y52590D01*
X110265Y52943D01*
X110996Y53504D01*
X111039Y53560D01*
X111517Y53362D01*
X111470Y53000D01*
X111590Y52086D01*
X111943Y51235D01*
X112504Y50504D01*
X113235Y49943D01*
X114086Y49590D01*
X115000Y49470D01*
X115914Y49590D01*
X116415Y49798D01*
X116798Y49415D01*
X116590Y48914D01*
X116470Y48000D01*
X116590Y47086D01*
X116943Y46235D01*
X117504Y45504D01*
X118235Y44943D01*
X119086Y44590D01*
X120000Y44470D01*
X120914Y44590D01*
X121765Y44943D01*
X122496Y45504D01*
X123057Y46235D01*
X123410Y47086D01*
X123530Y48000D01*
X123410Y48914D01*
X123057Y49765D01*
X123001Y49838D01*
X127205Y54042D01*
X127750Y53970D01*
X128664Y54090D01*
X129515Y54443D01*
X130246Y55004D01*
X130807Y55735D01*
X131160Y56586D01*
X131280Y57500D01*
X131160Y58414D01*
X130807Y59265D01*
X130246Y59996D01*
X129515Y60557D01*
X128664Y60910D01*
X127750Y61030D01*
X126872Y60915D01*
X126805Y60940D01*
X126436Y61285D01*
X126530Y62000D01*
X126410Y62914D01*
X126057Y63765D01*
X125496Y64496D01*
X124765Y65057D01*
X123914Y65410D01*
X123000Y65530D01*
X122904Y65517D01*
X122459Y65963D01*
X122530Y66500D01*
X122410Y67414D01*
X122057Y68265D01*
X121496Y68996D01*
X120765Y69557D01*
X119914Y69910D01*
X119000Y70030D01*
D02*
G37*
G36*
X117000Y31464D02*
Y28500D01*
X119964D01*
X119910Y28914D01*
X119557Y29765D01*
X118996Y30496D01*
X118265Y31057D01*
X117414Y31410D01*
X117000Y31464D01*
D02*
G37*
G36*
X116000D02*
X115586Y31410D01*
X114735Y31057D01*
X114004Y30496D01*
X113443Y29765D01*
X113090Y28914D01*
X113036Y28500D01*
X116000D01*
Y31464D01*
D02*
G37*
G36*
X119964Y27500D02*
X117000D01*
Y24536D01*
X117414Y24590D01*
X118265Y24943D01*
X118996Y25504D01*
X119557Y26235D01*
X119910Y27086D01*
X119964Y27500D01*
D02*
G37*
G36*
X116000D02*
X113036D01*
X113090Y27086D01*
X113443Y26235D01*
X114004Y25504D01*
X114735Y24943D01*
X115586Y24590D01*
X116000Y24536D01*
Y27500D01*
D02*
G37*
G36*
X15000Y23964D02*
Y21000D01*
X17964D01*
X17910Y21414D01*
X17557Y22265D01*
X16996Y22996D01*
X16265Y23557D01*
X15414Y23910D01*
X15000Y23964D01*
D02*
G37*
G36*
X14000D02*
X13586Y23910D01*
X12735Y23557D01*
X12004Y22996D01*
X11443Y22265D01*
X11090Y21414D01*
X11036Y21000D01*
X14000D01*
Y23964D01*
D02*
G37*
G36*
X17964Y20000D02*
X15000D01*
Y17036D01*
X15414Y17090D01*
X16265Y17443D01*
X16996Y18004D01*
X17557Y18735D01*
X17910Y19586D01*
X17964Y20000D01*
D02*
G37*
G36*
X14000D02*
X11036D01*
X11090Y19586D01*
X11443Y18735D01*
X12004Y18004D01*
X12735Y17443D01*
X13586Y17090D01*
X14000Y17036D01*
Y20000D01*
D02*
G37*
G36*
X48000Y18464D02*
Y15500D01*
X50964D01*
X50910Y15914D01*
X50557Y16765D01*
X49996Y17496D01*
X49265Y18057D01*
X48414Y18410D01*
X48000Y18464D01*
D02*
G37*
G36*
X47000D02*
X46586Y18410D01*
X45735Y18057D01*
X45004Y17496D01*
X44443Y16765D01*
X44090Y15914D01*
X44036Y15500D01*
X47000D01*
Y18464D01*
D02*
G37*
G36*
X50964Y14500D02*
X48000D01*
Y11536D01*
X48414Y11590D01*
X49265Y11943D01*
X49996Y12504D01*
X50557Y13235D01*
X50910Y14086D01*
X50964Y14500D01*
D02*
G37*
G36*
X47000D02*
X44036D01*
X44090Y14086D01*
X44443Y13235D01*
X45004Y12504D01*
X45735Y11943D01*
X46586Y11590D01*
X47000Y11536D01*
Y14500D01*
D02*
G37*
G36*
X55500Y8921D02*
Y5500D01*
X58921D01*
X58851Y6032D01*
X58453Y6993D01*
X57819Y7819D01*
X56993Y8453D01*
X56032Y8851D01*
X55500Y8921D01*
D02*
G37*
G36*
X54500D02*
X53968Y8851D01*
X53007Y8453D01*
X52181Y7819D01*
X51547Y6993D01*
X51149Y6032D01*
X51079Y5500D01*
X54500D01*
Y8921D01*
D02*
G37*
G36*
X190000Y16029D02*
X188824Y15913D01*
X187693Y15570D01*
X186651Y15013D01*
X185737Y14263D01*
X184987Y13350D01*
X184430Y12307D01*
X184087Y11176D01*
X183971Y10000D01*
X184087Y8824D01*
X184430Y7693D01*
X184987Y6650D01*
X185737Y5737D01*
X186651Y4987D01*
X187693Y4430D01*
X188824Y4087D01*
X190000Y3971D01*
X191176Y4087D01*
X192307Y4430D01*
X193350Y4987D01*
X194263Y5737D01*
X195013Y6650D01*
X195570Y7693D01*
X195913Y8824D01*
X196029Y10000D01*
X195913Y11176D01*
X195570Y12307D01*
X195013Y13350D01*
X194263Y14263D01*
X193350Y15013D01*
X192307Y15570D01*
X191176Y15913D01*
X190000Y16029D01*
D02*
G37*
G36*
X10000D02*
X8824Y15913D01*
X7693Y15570D01*
X6650Y15013D01*
X5737Y14263D01*
X4987Y13350D01*
X4430Y12307D01*
X4087Y11176D01*
X3971Y10000D01*
X4087Y8824D01*
X4430Y7693D01*
X4987Y6650D01*
X5737Y5737D01*
X6650Y4987D01*
X7693Y4430D01*
X8824Y4087D01*
X10000Y3971D01*
X11176Y4087D01*
X12307Y4430D01*
X13350Y4987D01*
X14263Y5737D01*
X15013Y6650D01*
X15570Y7693D01*
X15913Y8824D01*
X16029Y10000D01*
X15913Y11176D01*
X15570Y12307D01*
X15013Y13350D01*
X14263Y14263D01*
X13350Y15013D01*
X12307Y15570D01*
X11176Y15913D01*
X10000Y16029D01*
D02*
G37*
%LPD*%
G36*
X123945Y58561D02*
X124314Y58215D01*
X124220Y57500D01*
X124340Y56586D01*
X124657Y55820D01*
X120325Y51487D01*
X120000Y51530D01*
X119086Y51410D01*
X118585Y51202D01*
X118202Y51585D01*
X118410Y52086D01*
X118530Y53000D01*
X118410Y53914D01*
X118205Y54408D01*
X122352Y58555D01*
X123000Y58470D01*
X123878Y58585D01*
X123945Y58561D01*
D02*
G37*
G36*
X118086Y63090D02*
X119000Y62970D01*
X119096Y62982D01*
X119541Y62537D01*
X119470Y62000D01*
X119590Y61086D01*
X119873Y60402D01*
X115885Y56414D01*
X115000Y56530D01*
X114086Y56410D01*
X113235Y56057D01*
X112504Y55496D01*
X112461Y55440D01*
X111983Y55638D01*
X112030Y56000D01*
X111910Y56914D01*
X111812Y57149D01*
X117851Y63188D01*
X118086Y63090D01*
D02*
G37*
D10*
X120000Y49000D02*
X127750Y56750D01*
Y57500D01*
X115634Y54000D02*
X123000Y61366D01*
Y62000D01*
X108500Y56000D02*
X119000Y66500D01*
X120000Y48000D02*
Y49000D01*
X115000Y53366D02*
X115634Y54000D01*
X115000Y53000D02*
Y53366D01*
D23*
X75000Y85000D02*
D03*
X85000D02*
D03*
X95000D02*
D03*
X105000D02*
D03*
X115000D02*
D03*
X125000D02*
D03*
X135000D02*
D03*
X145000D02*
D03*
X155000D02*
D03*
X165000D02*
D03*
X175000D02*
D03*
X35000Y5000D02*
D03*
X45000D02*
D03*
X55000D02*
D03*
X65000D02*
D03*
X75000D02*
D03*
X85000D02*
D03*
X95000D02*
D03*
X105000D02*
D03*
X115000D02*
D03*
X125000D02*
D03*
X135000D02*
D03*
X145000D02*
D03*
X155000D02*
D03*
X165000D02*
D03*
X175000D02*
D03*
D24*
X65000Y85000D02*
D03*
X25000Y5000D02*
D03*
D25*
X190000Y10000D02*
D03*
Y80000D02*
D03*
X10000D02*
D03*
Y10000D02*
D03*
D26*
X127750Y57500D02*
D03*
X123000Y62000D02*
D03*
X119000Y66500D02*
D03*
X108500Y56000D02*
D03*
X115000Y53000D02*
D03*
X120000Y48000D02*
D03*
X47500Y15000D02*
D03*
X103059Y71059D02*
D03*
X14500Y20500D02*
D03*
X15500Y71000D02*
D03*
X116500Y28000D02*
D03*
M02*
